<svg fill="none" height="61" viewBox="0 0 242 61" width="242" xmlns="http://www.w3.org/2000/svg"><g clip-rule="evenodd" fill-rule="evenodd"><g fill="#374677"><path d="m230.4 27.4c-.7 0-1.5-.1-2.2-.3l.1 2.1c1.5.6 3 .8 4.4.8 5.5 0 9.1-3.1 9.1-7.7 0-4.4-3.7-8.2-9.9-8.2-8.5 0-13.8 7-13.8 15.4 0 8.1 5 13.1 12.6 13.1 5.9 0 9.6-2.8 11-4.4l-.6-2.1c-1.5 1-3.7 2.1-6.5 2.1-4.4 0-8.7-2.1-8.7-10.4 0-7 2.2-11 5.4-11 2.1 0 3.7 1.6 3.7 4.8.1 4-1.7 5.8-4.6 5.8z"/><path d="m67.4 26.1-7.7 2.3c-4.4 1.3-6.7 3.7-6.7 7.3 0 3.8 3 7 7.7 7 4.2 0 6.7-1.9 8-3.5.4 1.7 1.7 3.6 5.1 3.6 2.7 0 4.5-.8 6-2.6l-.8-1.6c-.4.4-.8.5-1.1.5-1 0-1.7-.5-1.7-1.9v-15.7c0-5-3.5-7.4-9.6-7.4-7.1 0-12.8 3.3-12.8 7.1 0 1.9 1.5 3 3.5 3 .4 0 .8 0 1.2-.1 1.3-.2 2.2-1.4 2.2-2.7v-1.2c0-2.2.9-3.3 3.6-3.3 2.4 0 4.3 1 4.3 4.5v3.3c0 1-.3 1.2-1.2 1.4zm1.2 8.9c0 2.3-1.5 3.5-3.7 3.5-2.4 0-4.2-1.4-4.2-4 0-2.3 1.3-4.1 4-5.2l3.8-1.5v7.2z"/><path d="m207.7 37.1-8.1-.1c-1.9-.1-3.1-.8-3.1-2.6 0-.6.3-1.3.8-1.9 1.5.5 3.3.8 5.3.8 7.9 0 12.4-4.4 12.4-9.6 0-3-1.5-5.7-4.3-7.4l-.5-.3c-.3-.2-.6-.3-.9-.5l-.4-.2c-.7-.3-1.5-.5-2.4-.7-.1 0-.2 0-.3-.1.7-1.1 3.5-6.4 6.5-7.5 1.1-.4 1.8.1 3 1.2.8.7 1.4 1.8 3.3 1.8 1.8 0 4.2-1.9 4.2-4 0-1.9-.5-4.8-5.2-4.8-6.5 0-10.7 6.8-13.1 11.4 0 0-.6 1.2-.7 1.5-.4 0-.9 0-1.4 0-7.8 0-12.3 4.4-12.3 9.5 0 3.3 1.8 6.3 5.1 8-1.6 1.5-4 3.4-4 5.6 0 .4 0 .8.1 1.1.2 1.2 1 2.5 2.1 3.2.7.5 1.7 1 2.8 1.3 1.7.4 3.3.6 3.9.6l4.5.2c3.5.1 5.9 1 5.9 4.1 0 3.5-4 5.6-9.5 5.6-4.5 0-7.8-1.7-7.8-4.9 0-1.8 1-3.1 2.4-3.9-1.2-.4-2.3-.9-3.3-1.1-2.8 1.3-4 3.2-4 5.4 0 3.8 4.1 7 11.6 7 10.9 0 17.1-5.6 17.1-11.4-.3-5.1-4.2-7.2-9.7-7.3zm-5.1-20.5c3.5 0 4.6 2.8 4.6 7.2s-1.1 7.3-4.6 7.3-4.6-2.8-4.6-7.3c0-4.4 1.1-7.2 4.6-7.2z"/><path d="m33.9999 36.2c0 3.1 2 6.4 7.7 6.4 4.5 0 7.4-2.5 8.9-5.5l-1.4-1.1c-1 1.5-2.7 2.3-4.2 2.3-1.9 0-3.3-1-3.3-3.1v-16.3h7.6v-2.8h-7.6v-8.2h-2.7c-.3 3.4-3.8 8.5-8.7 8.7v2.2h3.7z"/><path d="m8.19997 29.7c.1-.7.2-2.1-.4-2.5-.4-.3-.8-.5-1.1-.5-4.8-.7-8.1 7.7-4.5 11.4 2.3 2.3 5.4 4.2 11.10003 4.6 10 .6 15.8-5.2 16.2-11.9.4-6.2-4.2-9.2-10.5-12.6l-4.2-2.1c-3.6-2-5.50003-3.6-5.30003-6.9.3-4.4 4.00003-6.6 8.00003-6.2 3.6.4 3.8 2.4 3.7 5.2l-.2 2.7c-.1 1 .7 1.9 1.7 2 2.4.1 5.4-1 5.5-4.1.2-3.6-1.9-7.5-10.6-7.999999-9.30003-.7-15.10003 4.699999-15.50003 10.499999-.3 4.9 2.2 8.1 7.9 11.2l4.50003 2.3c4.4 2.4 7 4.4 6.7 8.6s-2.3 7.3-7.5 6.8c-5.10003-.6-5.60003-5.2-5.70003-6.9 0-.3 0-.6 0-.9 0-.6 0-1.8.2-2.7z"/><path d="m85.5999 21v15.5c0 2.4-.4 3.4-2.7 3.4h-1v2.3h15.8v-2.3h-1.2c-2.4 0-3.3-.9-3.3-3.4v-14.6c1-.9 2.5-2 4.1-3 .3 2.6 2.3 3.7 4.2001 3.7 2 0 4.1-1.6 4.1-4.2 0-2.3-1.6-4.2-4.6-4.2-2.2001 0-5.5001 1.6-7.9001 4.9v-.2c0-2.2-1.6-4.5-5.3-4.5-3.4 0-6.5 1.3-6.5 1.3v2.1c.5-.1 1.1-.2 1.5-.2 2 .1 2.8 1.4 2.8 3.4z"/><path d="m122.2 38.3c-1.9 0-3.3-1-3.3-3.1v-16.3h7.6v-2.8h-7.6v-8.2h-2.7c-.3 3.4-3.8 8.5-8.7 8.7v2.2h3.7v17.4c0 3.1 2 6.4 7.7 6.4 4.5 0 7.4-2.5 8.9-5.5l-1.5-1.2c-.9 1.6-2.6 2.4-4.1 2.4z"/><path d="m148.4 14.1c-3.5 0-6.2 1.4-8.1 3.1l.2-3.1h-2c-1.6 1.2-5.1 2.2-9.5 2.2v2.3h1.7c1.5 0 2 .5 2 1.9v30.1c0 2.4-.4 3.3-2.8 3.3h-1v2.3h15.9v-2.3h-1.5c-2.3 0-2.9-1-2.9-3.4v-29.1c0-2.4 1.7-3.7 4.4-3.7 3.6 0 6.9 2.8 6.9 11.1 0 7.6-3.1 11.1-6.8 11.4-.6 0-1.1.1-1.6.1v2c.7.1 1.4.1 2.1.1 8.4 0 14.3-5.7 14.3-15.2 0-8.1-4.9-13.1-11.3-13.1z"/><path d="m189 40.1-.7-1.6c-.4.4-.8.5-1.1.5-1 0-1.7-.5-1.7-1.9v-15.6c0-5-3.5-7.4-9.6-7.4-7.1 0-12.8 3.3-12.8 7.1 0 1.9 1.5 3 3.5 3 .4 0 .8 0 1.2-.1 1.3-.2 2.2-1.4 2.2-2.7v-1.2c0-2.2.9-3.3 3.6-3.3 2.4 0 4.3 1 4.3 4.5v3.3c0 .9-.3 1.2-1.2 1.4l-7.7 2.3c-4.4 1.3-6.7 3.7-6.7 7.3 0 3.8 3 7 7.7 7 4.2 0 6.7-1.9 8-3.5.4 1.7 1.7 3.6 5.1 3.6 2.6-.1 4.4-.9 5.9-2.7zm-11.2-5.1c0 2.3-1.5 3.5-3.7 3.5-2.4 0-4.2-1.4-4.2-4 0-2.3 1.3-4.1 4-5.2l3.8-1.5v7.2z"/></g><path d="m120.9 54.4c-8.2-1-22-2.6-35.8-3.3-12.5-.7-24.2-.9-29.6-.9-30.7 0-31.7.7-49.79997 2.7-6.200003.7-6.100003 7.9.7 7.1 10.19997-1.2 24.59997-2.6 36.79997-3.4 10.1-.7 25.4-1.5 42.3-1.5 14.8 0 27.8.3 35.2.8 1.1-.1 1-1.4.2-1.5z" fill="#6573ff"/></g></svg>