<svg enable-background="new 0 0 349.03 349.031" height="349.031" viewBox="0 0 349.03 349.031" width="349.03" xmlns="http://www.w3.org/2000/svg"><path fill="#6573ff" d="m349.03 141.226v66.579c0 5.012-4.061 9.079-9.079 9.079h-123.067v123.067c0 5.019-4.067 9.079-9.079 9.079h-66.579c-5.009 0-9.079-4.061-9.079-9.079v-123.067h-123.068c-5.016 0-9.079-4.067-9.079-9.079v-66.579c0-5.013 4.063-9.079 9.079-9.079h123.068v-123.068c0-5.018 4.069-9.079 9.079-9.079h66.579c5.012 0 9.079 4.061 9.079 9.079v123.068h123.067c5.019 0 9.079 4.066 9.079 9.079z"/></svg>